<?xml version="1.0" encoding="UTF-8" standalone="no"?>
<!-- Created with Inkscape (http://www.inkscape.org/) -->

<svg
   xmlns:dc="http://purl.org/dc/elements/1.1/"
   xmlns:cc="http://creativecommons.org/ns#"
   xmlns:rdf="http://www.w3.org/1999/02/22-rdf-syntax-ns#"
   xmlns:svg="http://www.w3.org/2000/svg"
   xmlns="http://www.w3.org/2000/svg"
   xmlns:sodipodi="http://sodipodi.sourceforge.net/DTD/sodipodi-0.dtd"
   xmlns:inkscape="http://www.inkscape.org/namespaces/inkscape"
   width="81.999992mm"
   height="174.93852mm"
   viewBox="0 0 290.55115 619.8609"
   id="svg3744"
   version="1.1"
   inkscape:version="0.91 r13725"
   sodipodi:docname="tkkrbar.svg">
  <defs
     id="defs3746" />
  <sodipodi:namedview
     id="base"
     pagecolor="#ffffff"
     bordercolor="#666666"
     borderopacity="1.0"
     inkscape:pageopacity="0.0"
     inkscape:pageshadow="2"
     inkscape:zoom="0.7"
     inkscape:cx="19.106538"
     inkscape:cy="435.86729"
     inkscape:document-units="px"
     inkscape:current-layer="layer1"
     showgrid="false"
     inkscape:window-width="1366"
     inkscape:window-height="706"
     inkscape:window-x="-8"
     inkscape:window-y="-8"
     inkscape:window-maximized="1"
     fit-margin-top="0"
     fit-margin-left="0"
     fit-margin-right="0"
     fit-margin-bottom="0" />
  <metadata
     id="metadata3749">
    <rdf:RDF>
      <cc:Work
         rdf:about="">
        <dc:format>image/svg+xml</dc:format>
        <dc:type
           rdf:resource="http://purl.org/dc/dcmitype/StillImage" />
        <dc:title></dc:title>
      </cc:Work>
    </rdf:RDF>
  </metadata>
  <g
     inkscape:label="Laag 1"
     inkscape:groupmode="layer"
     id="layer1"
     transform="translate(-69.010139,-59.574604)">
    <rect
       style="fill:#ffffff;stroke:#ff0000;stroke-width:1.13113415"
       id="rect3366"
       width="289.42001"
       height="618.7298"
       x="69.575706"
       y="60.140171"
       ry="12.010908" />
    <text
       xml:space="preserve"
       style="font-style:normal;font-weight:normal;font-size:45.3205986px;line-height:125%;font-family:sans-serif;letter-spacing:0px;word-spacing:0px;fill:#ffffff;fill-opacity:1;stroke:#0000ff;stroke-width:2.1820333px;stroke-linecap:butt;stroke-linejoin:miter;stroke-opacity:1"
       x="87.772926"
       y="123.90341"
       id="text3521"
       sodipodi:linespacing="125%"
       transform="scale(1.0561815,0.94680697)"><tspan
         sodipodi:role="line"
         id="tspan3523"
         x="87.772926"
         y="123.90341"
         style="font-style:normal;font-variant:normal;font-weight:normal;font-stretch:normal;font-family:'OCR A Std';-inkscape-font-specification:'OCR A Std';fill:#ffffff;stroke:#0000ff;stroke-width:2.1820333px">TkkrBar</tspan></text>
    <rect
       style="fill:#ffffff;stroke:#0000ff;stroke-width:2;stroke-miterlimit:4;stroke-dasharray:none"
       id="rect3483"
       width="278.43759"
       height="382.30127"
       x="75.066933"
       y="140.3952"
       ry="13.416085" />
    <rect
       style="fill:#ffffff;stroke:#0000ff;stroke-width:2;stroke-miterlimit:4;stroke-dasharray:none"
       id="rect3483-6"
       width="255.31105"
       height="354.12399"
       x="86.630203"
       y="153.47369"
       ry="12.427259" />
    <text
       xml:space="preserve"
       style="font-style:normal;font-weight:normal;font-size:26.65365982px;line-height:125%;font-family:sans-serif;letter-spacing:0px;word-spacing:0px;fill:#0000ff;fill-opacity:1;stroke:#0000ff;stroke-width:1px;stroke-linecap:butt;stroke-linejoin:miter;stroke-opacity:1"
       x="100.67267"
       y="175.27884"
       id="text3647"
       sodipodi:linespacing="125%"
       transform="scale(0.95954068,1.0421653)"><tspan
         sodipodi:role="line"
         id="tspan3649"
         x="100.67267"
         y="175.27884"
         style="font-style:normal;font-variant:normal;font-weight:bold;font-stretch:normal;font-family:'Comic Sans MS';-inkscape-font-specification:'Comic Sans MS Bold';fill:#0000ff;stroke:#0000ff">70  Club-Mate</tspan><tspan
         sodipodi:role="line"
         x="100.67267"
         y="208.59592"
         id="tspan3651"
         style="font-style:normal;font-variant:normal;font-weight:bold;font-stretch:normal;font-family:'Comic Sans MS';-inkscape-font-specification:'Comic Sans MS Bold';fill:#0000ff;stroke:#0000ff">71  Fritz-kola</tspan><tspan
         sodipodi:role="line"
         x="100.67267"
         y="241.91299"
         id="tspan3653"
         style="font-style:normal;font-variant:normal;font-weight:bold;font-stretch:normal;font-family:'Comic Sans MS';-inkscape-font-specification:'Comic Sans MS Bold';fill:#0000ff;stroke:#0000ff">72  Grolsch pijpje</tspan><tspan
         sodipodi:role="line"
         x="100.67267"
         y="275.23007"
         id="tspan3655"
         style="font-style:normal;font-variant:normal;font-weight:bold;font-stretch:normal;font-family:'Comic Sans MS';-inkscape-font-specification:'Comic Sans MS Bold';fill:#0000ff;stroke:#0000ff">73  Tukker pils</tspan><tspan
         sodipodi:role="line"
         x="100.67267"
         y="308.54715"
         id="tspan3657"
         style="font-style:normal;font-variant:normal;font-weight:bold;font-stretch:normal;font-family:'Comic Sans MS';-inkscape-font-specification:'Comic Sans MS Bold';fill:#0000ff;stroke:#0000ff">74  Blikje Cola</tspan><tspan
         sodipodi:role="line"
         x="100.67267"
         y="341.86423"
         id="tspan3659"
         style="font-style:normal;font-variant:normal;font-weight:bold;font-stretch:normal;font-family:'Comic Sans MS';-inkscape-font-specification:'Comic Sans MS Bold';fill:#0000ff;stroke:#0000ff">75  Blikje Fanta</tspan><tspan
         sodipodi:role="line"
         x="100.67267"
         y="375.18127"
         id="tspan3661"
         style="font-style:normal;font-variant:normal;font-weight:bold;font-stretch:normal;font-family:'Comic Sans MS';-inkscape-font-specification:'Comic Sans MS Bold';fill:#0000ff;stroke:#0000ff">76  IJsthee</tspan><tspan
         sodipodi:role="line"
         x="100.67267"
         y="408.49835"
         id="tspan3663"
         style="font-style:normal;font-variant:normal;font-weight:bold;font-stretch:normal;font-family:'Comic Sans MS';-inkscape-font-specification:'Comic Sans MS Bold';fill:#0000ff;stroke:#0000ff">77  Flesje water</tspan><tspan
         sodipodi:role="line"
         x="100.67267"
         y="441.81543"
         id="tspan3665"
         style="font-style:normal;font-variant:normal;font-weight:bold;font-stretch:normal;font-family:'Comic Sans MS';-inkscape-font-specification:'Comic Sans MS Bold';fill:#0000ff;stroke:#0000ff">78  Dubbel likkers</tspan><tspan
         sodipodi:role="line"
         x="100.67267"
         y="475.13251"
         id="tspan3667"
         style="font-style:normal;font-variant:normal;font-weight:bold;font-stretch:normal;font-family:'Comic Sans MS';-inkscape-font-specification:'Comic Sans MS Bold';fill:#0000ff;stroke:#0000ff">79  Tosti</tspan></text>
    <path
       id="rect3011_18_"
       inkscape:connector-curvature="0"
       d="m 79.916587,67.711654 c -3.137806,0 -5.683939,2.137005 -5.686363,4.772537 l 0,56.277539 c 0.0024,2.6355 2.548557,4.77049 5.686363,4.77254 l 268.452113,0 c 3.14265,0.006 5.69847,-2.1268 5.70575,-4.76437 0,-0.004 0,-0.009 0,-0.0107 l 0,-56.277546 c -0.002,-2.639624 -2.55098,-4.776629 -5.69364,-4.774593 -0.002,0 -0.007,0 -0.0122,0 l -268.452113,0 z m 5.683938,9.547106 257.084235,0 0,46.73044 -257.084235,0 0,-46.73044 z"
       style="fill:#ffffff;stroke:#0000ff;stroke-width:2.22578931" />
    <g
       transform="translate(-70.441432,485.40455)"
       id="g3438"
       style="stroke:#0000ff;stroke-width:1.5;stroke-miterlimit:4;stroke-dasharray:none">
      <path
         style="fill:#ffffff;stroke:#0000ff;stroke-width:1.5;stroke-miterlimit:4;stroke-dasharray:none"
         d="m 241.34551,161.78829 0,12.307 c 0,0.627 0.275,0.98 0.983,0.98 0.708,0 0.983,-0.353 0.983,-0.98 l 0,-12.307 1.908,0 0,0.706 c 0,0.627 0.275,0.98 0.983,0.98 0.708,0 0.983,-0.353 0.983,-0.98 l 0,-2.666 -9.715,0 0,2.666 c 0,0.627 0.276,0.98 0.984,0.98 0.708,0 0.983,-0.353 0.983,-0.98 l 0,-0.706 1.908,0"
         inkscape:connector-curvature="0"
         id="path2999_9_" />
      <path
         style="fill:#ffffff;stroke:#0000ff;stroke-width:1.5;stroke-miterlimit:4;stroke-dasharray:none"
         d="m 253.76851,168.90229 0,-6.977 c 0,-0.647 -0.137,-1.294 -0.944,-1.294 -0.806,0 -0.944,0.647 -0.944,1.294 l 0,11.856 c 0,0.647 0.138,1.293 0.944,1.293 0.807,0 0.944,-0.646 0.944,-1.293 l 0,-2.391 0.787,-0.706 4.739,3.938 c 0.275,0.216 0.511,0.451 0.885,0.451 0.531,0 0.944,-0.432 0.944,-0.96 0,-0.491 -0.315,-0.706 -0.669,-1 l -4.444,-3.684 3.657,-3.019 c 0.334,-0.274 0.629,-0.489 0.629,-0.94 0,-0.529 -0.413,-0.961 -0.943,-0.961 -0.453,0 -0.924,0.471 -1.259,0.765 l -4.326,3.628"
         inkscape:connector-curvature="0"
         id="path3001_9_" />
      <path
         style="fill:#ffffff;stroke:#0000ff;stroke-width:1.5;stroke-miterlimit:4;stroke-dasharray:none"
         d="m 267.94051,168.90229 0,-6.977 c 0,-0.647 -0.138,-1.294 -0.943,-1.294 -0.807,0 -0.945,0.647 -0.945,1.294 l 0,11.856 c 0,0.647 0.138,1.293 0.945,1.293 0.806,0 0.943,-0.646 0.943,-1.293 l 0,-2.391 0.787,-0.706 4.739,3.938 c 0.275,0.216 0.511,0.451 0.885,0.451 0.531,0 0.944,-0.432 0.944,-0.96 0,-0.491 -0.314,-0.706 -0.669,-1 l -4.444,-3.684 3.658,-3.019 c 0.335,-0.274 0.63,-0.489 0.63,-0.94 0,-0.529 -0.413,-0.961 -0.944,-0.961 -0.452,0 -0.924,0.471 -1.259,0.765 l -4.327,3.628"
         inkscape:connector-curvature="0"
         id="path3003_9_" />
      <path
         style="fill:#ffffff;stroke:#0000ff;stroke-width:1.5;stroke-miterlimit:4;stroke-dasharray:none"
         d="m 280.22551,173.78229 c 0,0.647 0.137,1.293 0.944,1.293 0.806,0 0.943,-0.646 0.943,-1.293 l 0,-4.762 2.636,-2.175 c 0.334,-0.274 0.59,-0.451 0.944,-0.451 l 0.55,0 c 0.453,0 0.905,0 1.141,0.333 0.196,0.274 0.196,0.51 0.196,0.823 0,0.607 0.275,1.156 0.963,1.156 0.807,0 0.925,-0.667 0.925,-1.313 0,-0.862 -0.217,-1.509 -0.846,-2.136 -0.511,-0.51 -1.121,-0.745 -1.849,-0.745 l -1.512,0 c -0.59,0 -1.141,0.373 -1.672,0.804 l -1.475,1.214 0,-0.764 c 0,-0.627 -0.196,-1.255 -0.943,-1.255 -0.866,0 -0.944,0.706 -0.944,1.392 l 0,7.879"
         inkscape:connector-curvature="0"
         id="path3005_9_" />
      <path
         style="fill:#ffffff;stroke:#0000ff;stroke-width:1.5;stroke-miterlimit:4;stroke-dasharray:none"
         d="m 296.12851,173.11529 0,-12.307 c 0,-0.627 -0.275,-0.98 -0.983,-0.98 -0.708,0 -0.983,0.353 -0.983,0.98 l 0,14.267 8.731,0 c 0.511,0 0.983,-0.274 0.983,-0.98 0,-0.706 -0.472,-0.98 -0.983,-0.98 l -6.765,0"
         inkscape:connector-curvature="0"
         id="path3007_9_" />
      <path
         style="fill:#ffffff;stroke:#0000ff;stroke-width:1.5;stroke-miterlimit:4;stroke-dasharray:none"
         d="m 314.07751,166.39329 c 1.357,0 1.672,0.235 1.672,1.646 l 0,0.431 -4.051,0 c -0.826,0 -1.553,0.138 -2.202,0.706 -0.708,0.627 -0.925,1.195 -0.925,2.097 l 0,0.823 c 0,0.98 0.197,1.666 0.983,2.313 0.688,0.568 1.298,0.666 2.144,0.666 l 1.809,0 c 0.61,0 0.629,0 1.16,-0.274 l 1.298,-0.667 c -0.02,0.529 0.472,0.941 0.963,0.941 0.629,0 0.905,-0.549 0.885,-1.098 l -0.196,-6.388 c -0.02,-0.941 -0.118,-1.51 -0.846,-2.235 -0.748,-0.744 -1.456,-0.842 -2.439,-0.842 l -2.595,0 c -0.629,0 -1.298,0.138 -1.298,0.941 0,0.823 0.748,0.94 1.298,0.94 l 2.34,0 m 0.433,3.959 c 1.042,0 1.337,0.314 1.337,1.353 l 0,0.412 -2.084,1.077 -2.084,0 c -0.452,0 -1.219,-0.137 -1.219,-0.764 l 0,-1.254 c 0,-0.687 0.747,-0.823 1.259,-0.823 l 2.791,0"
         inkscape:connector-curvature="0"
         id="path3009_9_" />
      <path
         style="fill:#ffffff;stroke:#0000ff;stroke-width:1.5;stroke-miterlimit:4;stroke-dasharray:none"
         d="m 324.63151,161.92529 c 0,-0.647 -0.138,-1.294 -0.943,-1.294 -0.806,0 -0.944,0.647 -0.944,1.294 l 0,11.837 c 0,0.647 0.138,1.313 0.944,1.313 0.747,0 0.943,-0.646 0.943,-1.254 l 0,-0.117 0.433,0.412 c 0.53,0.489 1.062,0.96 1.828,0.96 l 1.947,0 c 0.472,0 1.023,-0.294 1.475,-0.666 l 0.649,-0.549 c 0.748,-0.647 1.022,-1.175 1.022,-2.175 l 0,-3.783 c 0,-0.999 -0.274,-1.529 -1.022,-2.175 l -0.649,-0.548 c -0.471,-0.392 -0.904,-0.667 -1.396,-0.667 l -2.084,0 c -0.865,0 -1.24,0.412 -1.869,1.039 l -0.334,0.333 0,-3.96 m 0,6.977 c 0,-0.568 0.256,-0.862 0.571,-1.117 l 1.219,-1.058 c 0.216,-0.196 0.531,-0.333 0.787,-0.333 l 1.318,0 c 0.196,0 0.335,0.059 0.452,0.157 l 0.866,0.666 c 0.157,0.118 0.255,0.412 0.255,0.784 l 0,3.332 c 0,0.373 -0.02,0.823 -0.236,0.999 l -0.826,0.686 c -0.138,0.118 -0.315,0.176 -0.59,0.176 l -1.435,0 c -0.197,0 -0.492,-0.274 -0.728,-0.47 l -1.082,-0.922 c -0.492,-0.411 -0.571,-0.646 -0.571,-1.254 l 0,-1.646"
         inkscape:connector-curvature="0"
         id="path3011_9_" />
      <path
         style="fill:#ffffff;stroke:#0000ff;stroke-width:1.5;stroke-miterlimit:4;stroke-dasharray:none"
         d="m 229.35951,151.51029 c -1.294,0 -2.344,1.046 -2.345,2.336 l 0,27.546 c 0.001,1.29 1.051,2.335 2.345,2.336 l 110.707,0 c 1.296,0.003 2.35,-1.041 2.353,-2.332 0,-0.002 0,-0.004 0,-0.005 l 0,-27.546 c -10e-4,-1.292 -1.052,-2.338 -2.348,-2.337 -10e-4,0 -0.003,0 -0.005,0 l -110.707,0 z m 2.344,4.673 106.019,0 0,22.873 -106.019,0 0,-22.873 z"
         inkscape:connector-curvature="0"
         id="rect3011_18_-4" />
      <path
         id="path3177_9_"
         inkscape:connector-curvature="0"
         sodipodi:nodetypes="csssszzzcccsssscacscssssccsscsssccsssccsscssccssccscccsssssccccssssssscccccsscsssssscccssssszcsaaszczzzsssssssscsssssccc"
         d="m 227.83751,142.28329 c 0.504,-1.134 51.64,-89.249 52.154,-90.129 1.03,-1.761 2.04,-2.465 4.3,-2.465 1.9,0 3.279,0.758 4.306,2.366 0.458,0.717 12.461,21.37 26.674,45.894 0,0 25.325,42.595 26.309,44.652 0.983,2.057 1.423,4.983 0.121,6.099 -1.303,1.116 -2.686,1.063 -3.333,1.098 -0.648,0.034 -54.077,-0.063 -54.077,-0.063 l -53.61,0 c -3.576,0.087 -4.718,-4.262 -2.844,-7.452 l 0,0 z m 107.284,0.869 c -0.283,-0.487 -11.801,-20.369 -25.594,-44.183 -13.794,-23.814 -25.147,-43.298 -25.229,-43.298 -0.11,0 -43.714,75.043 -50.427,86.785 l -0.902,1.579 c 0,0 34.222,0 51.334,0 17.11,0 51.333,0 51.333,0 l -0.515,-0.883 z m -49.397,-4.864 c -0.356,-0.358 -0.426,-2.879 -0.109,-3.976 0.098,-0.338 1.085,-1.663 2.194,-2.942 1.588,-1.832 3.03,-3.905 3.03,-4.358 0,-0.029 -0.369,-0.18 -0.819,-0.337 -0.468,-0.162 -1.065,-0.699 -1.391,-1.25 -1.357,-1.422 -0.999,-3.372 -1.434,-5.043 -0.081,0.225 -0.495,1.117 0.135,3.487 0.076,0.286 -0.583,0.128 -0.631,0.727 l -0.088,1.087 -3.41,0.068 c -1.875,0.038 -3.681,0.208 -4.011,0.379 -0.333,0.172 -1.205,0.553 -1.306,1.021 -0.1,0.464 0.146,0.679 0.573,2.149 -1.605,0.369 -2.732,0.009 -4.14,-0.576 -0.093,-0.562 0.19,-1.243 0.295,-1.94 0.15,-1 0.457,-1.304 1.387,-2.23 0,0 0.838,-0.558 1.36,-0.752 0.76,-0.283 2.248,-0.253 2.248,-0.253 l 2.428,0.172 0.128,-2.217 c 0.107,-1.829 0.238,-2.331 0.754,-2.879 l 0.625,-0.663 -0.648,-0.126 c -4.679,-0.909 -4.753,-0.937 -6.65,-2.501 -0.307,-0.253 -0.715,-0.504 -1.378,-1.068 0.789,-0.581 0.806,-0.575 1.432,-1.443 -1.652,1.27 -2.432,1.307 -3.262,1.241 -1.015,-0.08 -2.03,-0.299 -2.257,-0.488 -0.227,-0.187 -0.463,-0.292 -0.526,-0.229 -0.216,0.215 -0.769,1.753 -0.405,3.639 0.265,1.21 0.572,2.638 0.788,3.18 0.691,1.74 1.546,1.211 2.638,2.042 -0.138,1.822 -0.797,2.444 -2.118,2.933 -1.167,-0.622 -2.691,-2.591 -2.691,-2.591 0,0 -0.572,-1.166 -0.844,-1.656 -0.813,-1.467 -0.652,-1.218 -0.634,-5.405 0.015,-3.709 0.083,-4.328 0.567,-5.166 0.573,-0.992 1.709,-1.401 2.369,-0.855 0.341,0.282 1.684,0.445 2.981,0.36 0.415,-0.027 -0.201,0.021 0.81,-0.022 -0.098,-0.505 0.174,-1.065 0.295,-1.463 -0.824,-0.219 -0.946,-0.361 -1.195,-0.543 -1.042,-0.917 -1.79,-2.167 -2.597,-3.365 -0.365,-0.552 -0.206,-1.48 -2.196,-0.021 -1.711,1.254 -1.034,1.283 -0.96,1.799 0.156,1.079 -2.027,2.788 -3.058,2.394 -0.328,-0.126 -0.332,-0.401 -0.022,-1.87 0.199,-0.948 0.482,-2.038 0.628,-2.422 0.249,-0.65 2.39,-2.63 3.316,-3.064 0.225,-0.106 0.715,-0.37 1.091,-0.586 1.064,-0.613 1.859,-0.495 2.391,0.356 0.907,1.15 2.054,2.532 4.228,3.518 0.586,-1.194 2.654,-3.496 4.264,-3.73 0.167,0 0.303,-0.245 0.303,-0.543 -0.082,-0.568 -0.181,-0.848 -0.341,-1.258 -0.153,-0.717 -0.248,-0.646 -2.3,-0.646 -1.152,0 -2.515,0.151 -3.028,0.336 -0.852,0.307 -1.505,-0.425 -1.121,-1.002 -0.373,0.078 -0.977,0.123 -1.192,0.123 -0.57,0 -1.263,-0.864 -1.454,-1.813 -0.147,-0.733 -0.029,-0.938 1.048,-1.817 0.667,-0.545 1.302,-0.991 1.411,-0.991 0.108,0 0.906,-0.544 1.772,-1.208 0.867,-0.664 1.978,-1.182 2.367,-1.405 1.198,-0.684 3.395,-1.753 3.395,-1.753 0,0 0.231,-1.251 1.475,-2.327 0.607,0.806 0.891,1.304 1.14,2.488 1.289,0.574 0.875,0.446 1.724,1.066 1.634,1.195 2.289,2.202 2.855,4.393 0.475,1.838 0.287,4.457 -0.506,7.038 -0.955,3.105 -0.289,6.461 1.555,7.841 1.237,0.925 3.467,2.004 4.584,2.218 1.468,0.281 2.765,0.894 3.738,2.167 0.973,1.273 0.793,1.093 1.042,2.119 0.471,0.113 2.643,-3.551 -2.206,-5.425 -2.191,-0.847 -4.041,-3.023 -4.644,-5.287 -0.306,-1.15 0.237,-2.407 0.712,-3.499 0.76,-1.743 1.791,-2.904 3.321,-4.645 0.786,-0.895 2.122,-2.092 1.588,-3.197 -0.534,-1.106 -2.583,-1.384 -3.72,1.263 -0.22,-1.768 0.902,-3.311 2.026,-3.634 1.124,-0.323 2.157,-0.341 3.292,0.952 1.135,1.292 1.509,3.018 -0.214,5.667 -1.723,2.649 -3.095,4.633 -2.912,5.436 0.239,1.047 0.642,1.468 2.116,2.211 2.369,1.193 4.538,4.249 4.981,7.016 0.101,0.629 0.044,1.814 -0.127,2.633 -0.25,1.197 -0.528,1.686 -1.415,2.483 -0.722,0.651 -1.282,0.948 -1.621,0.858 -0.348,-0.09 -0.518,0.007 -0.518,0.298 0,1.079 -1.184,2.785 -2.698,3.89 l -1.578,1.152 0.686,1.044 c 0.377,0.574 0.787,1.044 0.911,1.044 0.717,0 -0.01,1.265 -1.588,2.764 -0.997,0.947 -2.693,2.823 -3.77,4.169 -1.847,2.309 -2.063,1.788 -2.358,2.839 -0.167,0.595 0.579,1.208 0.782,2.162 -1.274,0.311 -2.879,0.245 -3.688,0.258 z"
         style="fill:#ffffff;stroke:#0000ff;stroke-width:1.5;stroke-miterlimit:4;stroke-dasharray:none" />
    </g>
    <rect
       style="fill:#0000ff;stroke:#0000ff;stroke-width:1.51803291;stroke-miterlimit:4;stroke-dasharray:none"
       id="rect4651"
       width="5.6962528"
       height="347.12482"
       x="136.43758"
       y="156.97328"
       ry="2.9355166" />
  </g>
</svg>
